# xmcd
#
# Track frame offsets: 
#        150
#        15413
#        24786
#        39167
#        54030
#        70201
#        81866
#        96744
#        111973
#        126936
#
# Disc length: 1811 seconds
#
# Revision: 2
# Processed by: cddbd v1.5.2PL0 Copyright (c) Steve Scherf et al.
# Submitted via: ExactAudioCopy v1.0b6
#
DISCID=7407110a
DTITLE=Fausto Leali - A chi
DYEAR=2000
DGENRE=beat/pop
TTITLE0=A chi (Hurt)
TTITLE1=Se qualcuno cercasse di te (Funny how love can be)
TTITLE2=Portami con te (Fly me to the moon in other words)
TTITLE3=È colpa sua
TTITLE4=Chiudo gli occhi e conto a sei (I close my eyes and count to t
TTITLE4=en)
TTITLE5=Un'ora fa
TTITLE6=Deborah
TTITLE7=Senza di te
TTITLE8=Senza luce (A whiter shade of pale)
TTITLE9=T'ho vista piangere
EXTD=
EXTT0=
EXTT1=
EXTT2=
EXTT3=
EXTT4=
EXTT5=
EXTT6=
EXTT7=
EXTT8=
EXTT9=
PLAYORDER=
